<svg width="32" height="32" viewBox="0 0 32 32" fill="none" xmlns="http://www.w3.org/2000/svg">
  <path d="M8 3H19L25 9V27C25 28.1046 24.1046 29 23 29H8C6.89543 29 6 28.1046 6 27V5C6 3.89543 6.89543 3 8 3Z" fill="#1F7244"/>
  <path d="M19 3V9H25" fill="#49A56A"/>
  <path d="M19 3V9H25" stroke="#D9F2E3" stroke-width="1.2" stroke-linejoin="round"/>
  <path d="M8 3H19L25 9V27C25 28.1046 24.1046 29 23 29H8C6.89543 29 6 28.1046 6 27V5C6 3.89543 6.89543 3 8 3Z" stroke="#155A35" stroke-width="1.2" stroke-linejoin="round"/>
  <rect x="4" y="10" width="11" height="12" rx="1.6" fill="#185C37"/>
  <path d="M7.2 13.2L9.2 16L7.2 18.8H9.2L10.2 17.2L11.2 18.8H13.2L11.2 16L13.2 13.2H11.2L10.2 14.8L9.2 13.2H7.2Z" fill="white"/>
  <path d="M16.5 14H22.5" stroke="#D9F2E3" stroke-width="1.2" stroke-linecap="round"/>
  <path d="M16.5 18H22.5" stroke="#D9F2E3" stroke-width="1.2" stroke-linecap="round"/>
  <path d="M16.5 22H22.5" stroke="#D9F2E3" stroke-width="1.2" stroke-linecap="round"/>
</svg>